<svg xmlns="http://www.w3.org/2000/svg" xmlns:xlink="http://www.w3.org/1999/xlink" version="1.1" x="0px" y="0px"
     enable-background="new 0 0 64 64" xml:space="preserve" viewBox="1 7.08 62 49.84"><g><g><path d="M63,38.682V26.174c0-7.049-7.182-12.783-16.01-12.783c-4.713,0-7.382,1.455-9.736,2.739    c-1.726,0.94-3.217,1.754-5.256,1.754c-2.04,0-3.53-0.813-5.257-1.754c-1.582-0.862-3.357-1.823-5.833-2.348    c-0.069-1.737-1.279-3.188-2.908-3.603c-0.126-1.73-1.574-3.1-3.336-3.1c-1.71,0-3.125,1.292-3.321,2.951    c-0.926,0.262-1.707,0.888-2.163,1.737c-1.924-0.018-3.429,1.496-3.428,3.375c0,0.592,0.167,1.141,0.436,1.624    C2.888,19.184,1,22.553,1,26.174v12.508c0,7.049,7.18,12.783,16.006,12.783c4.714,0,7.382-1.455,9.736-2.739    c1.726-0.941,3.217-1.754,5.256-1.754s3.53,0.813,5.256,1.754c2.209,1.205,4.719,2.546,8.914,2.707    c0.364,1.438,1.511,2.567,2.971,2.883c0.48,1.513,1.905,2.604,3.549,2.604c1.735,0,3.197-1.193,3.608-2.845    c1.962-0.332,3.462-2.043,3.462-4.097c0-1.014-0.379-1.931-0.984-2.652C61.467,44.978,63,41.888,63,38.682z M9.132,13.769    c0.139,0,0.272,0.02,0.395,0.058c0.264,0.083,0.551,0.051,0.792-0.086s0.414-0.367,0.478-0.637    c0.17-0.711,0.797-1.207,1.573-1.207c0.3,0,0.584-0.135,0.774-0.367s0.266-0.538,0.206-0.833    c-0.018-0.088-0.028-0.179-0.028-0.271c0-0.741,0.603-1.345,1.344-1.345c0.742,0,1.345,0.604,1.345,1.345    c0,0.121-0.017,0.244-0.05,0.356c-0.088,0.302-0.029,0.628,0.16,0.88c0.189,0.251,0.485,0.399,0.8,0.399h0.124    c1.036,0,1.878,0.841,1.878,1.875s-0.842,1.875-1.878,1.875c-0.769,0-1.453-0.462-1.743-1.177    c-0.136-0.334-0.441-0.57-0.799-0.616c-0.357-0.041-0.713,0.105-0.929,0.395c-0.409,0.547-1.161,0.768-1.819,0.516    c-0.257-0.1-0.544-0.086-0.791,0.034c-0.248,0.12-0.435,0.336-0.518,0.599c-0.182,0.573-0.709,0.958-1.313,0.958    c-0.76,0-1.379-0.617-1.379-1.375S8.372,13.769,9.132,13.769z M7.664,18.169c0.445,0.217,0.939,0.35,1.468,0.35    c1.157,0,2.201-0.579,2.814-1.505c0.77,0.078,1.558-0.099,2.211-0.488c0.722,0.806,1.76,1.285,2.887,1.285    c1.486,0,2.764-0.849,3.415-2.078c2.207,0.461,3.792,1.318,5.325,2.154c1.885,1.026,3.665,1.997,6.214,1.997    s4.329-0.971,6.214-1.998c2.249-1.227,4.575-2.495,8.778-2.495c7.725,0,14.01,4.837,14.01,10.783    c0,5.943-6.285,10.779-14.01,10.779c-4.204,0-6.529-1.269-8.778-2.495c-1.885-1.027-3.665-1.998-6.214-1.998    s-4.329,0.971-6.213,1.998c-2.249,1.227-4.575,2.495-8.779,2.495C9.283,36.953,3,32.117,3,26.174    C3,23.104,4.702,20.221,7.664,18.169z M31.998,44.972c-2.549,0-4.329,0.971-6.213,1.998c-2.249,1.227-4.575,2.495-8.779,2.495    C9.283,49.465,3,44.628,3,38.682v-6.336c2.731,3.936,7.983,6.607,14.006,6.607c4.714,0,7.382-1.455,9.736-2.739    c1.726-0.941,3.217-1.754,5.256-1.754s3.53,0.813,5.256,1.754c2.354,1.284,5.022,2.739,9.736,2.739    c6.024,0,11.278-2.672,14.01-6.607v6.336c0,2.797-1.388,5.412-3.896,7.434c-0.468-0.183-0.972-0.292-1.503-0.292    c-1.277,0-2.455,0.591-3.228,1.54c-0.676-0.522-1.516-0.818-2.405-0.818c-1.806,0-3.315,1.229-3.775,2.89    c-3.696-0.153-5.882-1.32-7.981-2.465C36.327,45.942,34.547,44.972,31.998,44.972z M55.524,52.133c0,0-0.001,0-0.001,0    c-0.28-0.025-0.565,0.094-0.777,0.283s-0.333,0.495-0.333,0.779c0,0.951-0.773,1.725-1.724,1.725    c-0.895,0-1.649-0.699-1.717-1.591c-0.04-0.521-0.481-0.925-1.004-0.925c-1.065,0-1.933-0.865-1.933-1.93s0.867-1.93,1.933-1.93    c0.722,0,1.377,0.396,1.712,1.035c0.189,0.362,0.585,0.571,0.989,0.53c0.408-0.042,0.748-0.329,0.859-0.723    c0.26-0.921,1.112-1.564,2.073-1.564c1.19,0,2.158,0.967,2.158,2.155S56.792,52.133,55.524,52.133z"/><path
        d="M12.321,27.813c2.248,0,4.076-1.829,4.076-4.077s-1.829-4.076-4.076-4.076c-2.246,0-4.073,1.828-4.073,4.076    S10.075,27.813,12.321,27.813z M12.321,21.66c1.145,0,2.076,0.932,2.076,2.076c0,1.146-0.931,2.077-2.076,2.077    c-1.143,0-2.073-0.932-2.073-2.077C10.248,22.592,11.178,21.66,12.321,21.66z"/><path
        d="M43.962,26.622c2.246,0,4.073-1.828,4.073-4.076s-1.827-4.076-4.073-4.076c-2.248,0-4.076,1.828-4.076,4.076    S41.714,26.622,43.962,26.622z M43.962,20.47c1.143,0,2.073,0.932,2.073,2.076s-0.93,2.076-2.073,2.076    c-1.145,0-2.076-0.932-2.076-2.076S42.817,20.47,43.962,20.47z"/><path
        d="M23.166,31.205c1.813,0,3.289-1.476,3.289-3.289c0-1.816-1.476-3.294-3.289-3.294c-1.816,0-3.293,1.478-3.293,3.294    C19.873,29.729,21.35,31.205,23.166,31.205z M23.166,26.622c0.711,0,1.289,0.58,1.289,1.294c0,0.711-0.578,1.289-1.289,1.289    c-0.713,0-1.293-0.578-1.293-1.289C21.873,27.202,22.453,26.622,23.166,26.622z"/><path
        d="M52.445,33.073c1.816,0,3.293-1.476,3.293-3.289c0-1.815-1.477-3.293-3.293-3.293s-3.293,1.478-3.293,3.293    C49.152,31.598,50.629,33.073,52.445,33.073z M52.445,28.491c0.713,0,1.293,0.58,1.293,1.293c0,0.711-0.58,1.289-1.293,1.289    s-1.293-0.578-1.293-1.289C51.152,29.071,51.732,28.491,52.445,28.491z"/><path
        d="M20.9,21.66c0.552,0,1-0.447,1-1s-0.448-1-1-1h-0.027c-0.552,0-0.986,0.447-0.986,1S20.348,21.66,20.9,21.66z"/><path
        d="M34.801,29.679c0.552,0,1-0.447,1-1s-0.448-1-1-1h-0.027c-0.552,0-0.986,0.447-0.986,1S34.249,29.679,34.801,29.679z"/><path
        d="M53.934,22.602c0.552,0,1-0.447,1-1s-0.448-1-1-1h-0.027c-0.552,0-0.986,0.447-0.986,1S53.381,22.602,53.934,22.602z"/><path
        d="M13.427,44.085h-0.027c-0.552,0-0.986,0.447-0.986,1s0.461,1,1.014,1s1-0.447,1-1S13.979,44.085,13.427,44.085z"/><path
        d="M25.544,39.965h-0.027c-0.552,0-0.986,0.447-0.986,1s0.461,1,1.014,1s1-0.447,1-1S26.096,39.965,25.544,39.965z"/><path
        d="M39.396,41.381h-0.03c-0.552,0-0.985,0.447-0.985,1s0.463,1,1.015,1s1-0.447,1-1S39.949,41.381,39.396,41.381z"/><path
        d="M52.473,44.589c0.552,0,1-0.447,1-1s-0.448-1-1-1h-0.027c-0.552,0-0.986,0.447-0.986,1S51.92,44.589,52.473,44.589z"/></g></g></svg>