<svg xmlns="http://www.w3.org/2000/svg" data-name="Layer 3" x="0px" y="0px" viewBox="14 1 36 62">
    <path d="M47.886,46.472A1.631,1.631,0,0,1,47,45.02a1.827,1.827,0,0,1,.99-1.551,4,4,0,0,0-.1-7A1.631,1.631,0,0,1,47,35.02a1.827,1.827,0,0,1,.99-1.551,4,4,0,0,0-1.29-7.408l-1.773-4.433A1,1,0,0,0,44,21H41.742L38.267,9.412a1,1,0,0,0-1.4-.612,1.992,1.992,0,0,1-1.25.165,2,2,0,0,1,.114-3.947,1,1,0,0,0,.829-1.279l-.608-2.027A1,1,0,0,0,35,1H30.639A3.01,3.01,0,0,0,27.7,3.411L25.165,16.064A6.006,6.006,0,0,0,20.09,21H20a1,1,0,0,0-.929.628L17.3,26.061a4,4,0,0,0-1.289,7.408,1.842,1.842,0,0,1,.991,1.6,1.615,1.615,0,0,1-.887,1.4,4,4,0,0,0-.1,7,1.842,1.842,0,0,1,.991,1.6,1.615,1.615,0,0,1-.887,1.4,4,4,0,0,0,1.066,7.443l.8,3.6A6.958,6.958,0,0,0,24.813,63H25a4,4,0,0,0,4-4V54a.983.983,0,0,0-.071-.371A26.853,26.853,0,0,1,27,43.614v-3.23a26.825,26.825,0,0,1,1.93-10.013A.992.992,0,0,0,29,30V29h6v1a.983.983,0,0,0,.071.371A26.851,26.851,0,0,1,37,40.384v3.23a26.826,26.826,0,0,1-1.93,10.014A.992.992,0,0,0,35,54v5a4,4,0,0,0,4,4h.188a6.959,6.959,0,0,0,6.833-5.482l.8-3.6a4,4,0,0,0,1.067-7.443ZM29,23v-.726L31.565,18h1.757L35,22.192V23Zm.657-19.2a1,1,0,0,1,.982-.8h3.616l.1.352A4.032,4.032,0,0,0,32.8,4.594a4,4,0,0,0,2.467,6.341,4.1,4.1,0,0,0,1.37.014L39.654,21H36.676l-1.748-4.371A1,1,0,0,0,34,16H27.219ZM26,18h3.233l-1.8,3h-5.29A3.994,3.994,0,0,1,26,18ZM16,50a2,2,0,0,1,1.058-1.764A3.629,3.629,0,0,0,19,45.02a3.8,3.8,0,0,0-1.994-3.285,2,2,0,0,1,.052-3.5A3.629,3.629,0,0,0,19,35.02a3.8,3.8,0,0,0-1.994-3.285A2,2,0,0,1,18,28a1,1,0,0,0,.928-.629l.249-.624A9.165,9.165,0,0,1,21,32.242V47.757a9.167,9.167,0,0,1-1.9,5.6l-.126-.571A1,1,0,0,0,18,52,2,2,0,0,1,16,50Zm11-20.19a28.826,28.826,0,0,0-2,10.575v3.23A28.841,28.841,0,0,0,27,54.19V59a2,2,0,0,1-2,2h-.185a4.97,4.97,0,0,1-4.882-3.915l-.3-1.33c.023-.019.051-.027.072-.048A11.171,11.171,0,0,0,23,47.757V32.242a11.157,11.157,0,0,0-2.977-7.6L20.677,23H27ZM29,25h2v2H29Zm4,2V25h2v2Zm6.189,34H39a2,2,0,0,1-2-2V54.19a28.828,28.828,0,0,0,2-10.576v-3.23a28.843,28.843,0,0,0-2-10.575V23h6.322l.656,1.639A11.146,11.146,0,0,0,41,32.242V47.757a11.171,11.171,0,0,0,3.291,7.949c.021.021.049.029.072.048l-.3,1.33A4.969,4.969,0,0,1,39.187,61ZM46,52a1,1,0,0,0-.976.783l-.126.569A9.17,9.17,0,0,1,43,47.757V32.242a9.157,9.157,0,0,1,1.821-5.494l.249.623A1,1,0,0,0,46,28a2,2,0,0,1,1,3.735A3.819,3.819,0,0,0,45,35.069a3.61,3.61,0,0,0,1.941,3.166,2,2,0,0,1,.052,3.5A3.819,3.819,0,0,0,45,45.069a3.61,3.61,0,0,0,1.941,3.166A2,2,0,0,1,46,52Z"/>
    <path d="M32,11a2,2,0,1,0,2,2A2,2,0,0,0,32,11Z"/>
    <path d="M39.5,24A1.5,1.5,0,1,0,41,25.5,1.5,1.5,0,0,0,39.5,24Zm0,2a.5.5,0,1,1,.5-.5A.5.5,0,0,1,39.5,26Z"/>
    <path d="M24.5,27A1.5,1.5,0,1,0,23,25.5,1.5,1.5,0,0,0,24.5,27Zm0-2a.5.5,0,1,1-.5.5A.5.5,0,0,1,24.5,25Z"/>
</svg>