<svg xmlns="http://www.w3.org/2000/svg" xmlns:xlink="http://www.w3.org/1999/xlink" version="1.1" x="0px" y="0px"
     enable-background="new 0 0 100 100" xml:space="preserve" viewBox="8.47 11.07 83.06 77.86"><path d="M26.63,70.76c0.59,0.59,0.59,1.54,0,2.13c-0.29,0.29-0.67,0.44-1.061,0.44c-0.38,0-0.77-0.15-1.06-0.44  c-0.58-0.59-0.58-1.54,0-2.13C25.1,70.18,26.05,70.18,26.63,70.76z M28.05,67.23c-0.59,0.59-0.59,1.54,0,2.12  c0.29,0.29,0.67,0.44,1.06,0.44c0.381,0,0.761-0.15,1.061-0.44c0.58-0.58,0.58-1.53,0-2.12C29.58,66.64,28.63,66.64,28.05,67.23z   M20.979,74.3c-0.59,0.59-0.59,1.54,0,2.12c0.29,0.29,0.67,0.44,1.061,0.44c0.38,0,0.77-0.15,1.06-0.44c0.58-0.58,0.58-1.53,0-2.12  C22.51,73.72,21.56,73.72,20.979,74.3z M35.12,60.16c-0.59,0.58-0.59,1.53,0,2.12c0.29,0.29,0.67,0.44,1.06,0.44  c0.38,0,0.771-0.15,1.061-0.44c0.579-0.59,0.579-1.54,0-2.12C36.649,59.57,35.7,59.57,35.12,60.16z M45.72,49.55  c-0.58,0.59-0.58,1.54,0,2.12c0.3,0.3,0.68,0.44,1.061,0.44c0.39,0,0.77-0.14,1.069-0.44c0.58-0.58,0.58-1.53,0-2.12  C47.26,48.97,46.31,48.97,45.72,49.55z M42.189,53.09c-0.59,0.58-0.59,1.53,0,2.12c0.29,0.29,0.681,0.44,1.061,0.44  s0.77-0.15,1.06-0.44c0.59-0.59,0.59-1.54,0-2.12C43.72,52.5,42.77,52.5,42.189,53.09z M38.649,56.62c-0.58,0.59-0.58,1.54,0,2.12  c0.29,0.3,0.681,0.44,1.061,0.44c0.39,0,0.77-0.14,1.06-0.44c0.59-0.58,0.59-1.53,0-2.12C40.189,56.04,39.24,56.04,38.649,56.62z   M31.58,63.69c-0.58,0.59-0.58,1.54,0,2.13c0.29,0.29,0.68,0.43,1.06,0.43c0.391,0,0.771-0.14,1.07-0.43c0.58-0.59,0.58-1.54,0-2.13  C33.12,63.11,32.17,63.11,31.58,63.69z M66.938,51.673l-9.524-9.524c-1.327,1.541-2.057,3.48-2.057,5.534  c0,2.289-0.892,4.442-2.511,6.061L19.562,87.028c-1.268,1.267-2.932,1.9-4.596,1.9c-1.665,0-3.329-0.633-4.597-1.9  c-2.534-2.534-2.534-6.658,0-9.192l33.284-33.284c1.053-1.052,1.632-2.452,1.632-3.939c0-3.072,1.196-5.959,3.368-8.131  l14.749-14.749c1.228-1.228,2.859-1.904,4.596-1.904s3.369,0.676,4.597,1.904l14.142,14.142c0.586,0.586,0.586,1.536,0,2.121  L69.06,51.673c-0.293,0.293-0.677,0.439-1.061,0.439S67.231,51.966,66.938,51.673z M70.475,24.803c0.891-0.891,1.997-1.487,3.2-1.75  l-3.2-3.201c-1.321-1.321-3.627-1.322-4.95,0L50.775,34.602c-1.605,1.605-2.489,3.74-2.489,6.01c0,2.289-0.892,4.442-2.511,6.061  L12.491,79.957c-1.364,1.365-1.364,3.585,0,4.95c1.366,1.365,3.586,1.364,4.95,0l33.284-33.284c1.053-1.052,1.632-2.452,1.632-3.939  c0-3.071,1.196-5.959,3.368-8.132L70.475,24.803z M59.514,40.006l8.485,8.485l1.415-1.415l-6.01-6.01  c-0.586-0.585-0.586-1.536,0-2.121c0.586-0.586,1.535-0.586,2.121,0l6.01,6.01l1.414-1.414l-6.01-6.01  c-0.586-0.585-0.586-1.536,0-2.121c0.586-0.586,1.535-0.586,2.121,0l6.01,6.01l1.415-1.415l-6.01-6.01  c-0.586-0.585-0.586-1.536,0-2.121c0.586-0.586,1.535-0.586,2.121,0l6.01,6.01l1.414-1.414l-6.01-6.01  c-0.586-0.585-0.586-1.535,0-2.121s1.535-0.586,2.121,0l6.01,6.01l1.414-1.414l-6.011-6.011c-1.321-1.32-3.626-1.321-4.949,0.001  L59.514,40.006z M91.533,57.38c0,2.895-2.355,5.25-5.25,5.25s-5.25-2.355-5.25-5.25s2.355-5.25,5.25-5.25  S91.533,54.485,91.533,57.38z M88.533,57.38c0-1.241-1.01-2.25-2.25-2.25s-2.25,1.009-2.25,2.25s1.01,2.25,2.25,2.25  S88.533,58.621,88.533,57.38z M51.582,77.229c0,2.895-2.355,5.25-5.25,5.25s-5.25-2.355-5.25-5.25s2.355-5.25,5.25-5.25  S51.582,74.334,51.582,77.229z M48.582,77.229c0-1.241-1.01-2.25-2.25-2.25s-2.25,1.009-2.25,2.25s1.01,2.25,2.25,2.25  S48.582,78.47,48.582,77.229z M15.02,52.38c0-2.895,2.355-5.25,5.25-5.25s5.25,2.355,5.25,5.25s-2.355,5.25-5.25,5.25  S15.02,55.275,15.02,52.38z M18.02,52.38c0,1.241,1.01,2.25,2.25,2.25s2.25-1.009,2.25-2.25s-1.01-2.25-2.25-2.25  S18.02,51.14,18.02,52.38z M40.829,16.318c0-2.895,2.355-5.25,5.25-5.25s5.25,2.355,5.25,5.25s-2.355,5.25-5.25,5.25  S40.829,19.213,40.829,16.318z M43.829,16.318c0,1.241,1.01,2.25,2.25,2.25s2.25-1.009,2.25-2.25s-1.01-2.25-2.25-2.25  S43.829,15.077,43.829,16.318z M22.419,30.46c0-4.273,3.477-7.75,7.75-7.75s7.75,3.477,7.75,7.75s-3.477,7.75-7.75,7.75  S22.419,34.733,22.419,30.46z M25.419,30.46c0,2.619,2.131,4.75,4.75,4.75s4.75-2.131,4.75-4.75s-2.131-4.75-4.75-4.75  S25.419,27.841,25.419,30.46z M75.624,71.522c0,4.273-3.477,7.75-7.75,7.75s-7.75-3.477-7.75-7.75s3.477-7.75,7.75-7.75  S75.624,67.249,75.624,71.522z M72.624,71.522c0-2.619-2.131-4.75-4.75-4.75s-4.75,2.131-4.75,4.75s2.131,4.75,4.75,4.75  S72.624,74.142,72.624,71.522z"/></svg>